<?xml version="1.0" encoding="utf-8"?>
<!-- Generator: Adobe Illustrator 26.1.0, SVG Export Plug-In . SVG Version: 6.00 Build 0)  -->
<svg version="1.1" id="Layer_1" xmlns="http://www.w3.org/2000/svg" xmlns:xlink="http://www.w3.org/1999/xlink" x="0px" y="0px"
	 viewBox="0 0 112 112" style="enable-background:new 0 0 112 112;" xml:space="preserve">
<style type="text/css">
	.st0{fill:none;stroke:#FFFFFF;stroke-width:2.5137;}
	.st1{fill:none;stroke:#FFFFFF;stroke-width:3.5787;}
</style>
<path class="st0" d="M-28.7-92.7c-18.7,18.7-49,18.7-67.8,0s-18.7-49.1,0-67.8s49-18.7,67.8,0"/>
<path class="st0" d="M32.6-174.6H0.5v96 M32.6-110.6c17.7,0,32.1-14.3,32.1-32s-14.4-32-32.1-32 M64.8-78.6c0-17.7-14.4-32-32.1-32
	H0.6"/>
<path class="st0" d="M169.8-78.6v-96 M90.6-174.6v96 M90.6-110.6h79.2"/>
<path class="st1" d="M8,56C8,29.5,29.5,8,56,8s48,21.5,48,48"/>
<path class="st1" d="M104,56c0,26.5-21.5,48-48,48S8,82.5,8,56"/>
</svg>
