<?xml version="1.0" encoding="utf-8"?>
<!-- Generator: Adobe Illustrator 26.1.0, SVG Export Plug-In . SVG Version: 6.00 Build 0)  -->
<svg version="1.1" id="Layer_1" xmlns="http://www.w3.org/2000/svg" xmlns:xlink="http://www.w3.org/1999/xlink" x="0px" y="0px"
	 viewBox="0 0 40.6 80.2" style="enable-background:new 0 0 40.6 80.2;" xml:space="preserve">
<style type="text/css">
	.st0{fill:none;}
</style>
<g id="close">
	<path class="st0" d="M11.3,31.1l6.3,6.3"/>
	<path class="st0" d="M20.4,40l8.9,9.1"/>
	<path class="st0" d="M29.3,31.1l-18,18"/>
</g>
<g id="logo">
	<path class="st0" d="M3.4,49.9c-5.4,5.4-14.2,5.4-19.7,0s-5.4-14.2,0-19.7s14.2-5.4,19.7,0"/>
	<path class="st0" d="M21.2,26.2h-9.3V54 M21.2,44.7c5.1,0,9.3-4.1,9.3-9.3s-4.2-9.3-9.3-9.3 M30.5,54c0-5.1-4.2-9.3-9.3-9.3h-9.3"
		/>
	<path class="st0" d="M61,54V26.2 M38,26.2V54 M38,44.7h23"/>
</g>
</svg>
