<?xml version="1.0" encoding="utf-8"?>
<!-- Generator: Adobe Illustrator 26.1.0, SVG Export Plug-In . SVG Version: 6.00 Build 0)  -->
<svg version="1.1" id="Layer_1" xmlns="http://www.w3.org/2000/svg" xmlns:xlink="http://www.w3.org/1999/xlink" x="0px" y="0px"
	 viewBox="0 0 40.6 80.2" style="enable-background:new 0 0 298.6 113.9;" xml:space="preserve">
<style type="text/css">
	.st0{fill:none;stroke:#FFFFFF;stroke-width:2.5137;}
</style>
<g id="close">
	<path fill="none" d="M11.3,31.1l6.3,6.3" />
	<path fill="none" d="M20.4,40l8.9,9.1" />
	<path fill="none" d="M29.3,31.1l-18,18" />
</g>

<g id="logo">
	<path fill="none" d="M88.9,90.8c-18.7,18.7-49,18.7-67.8,0S2.4,41.7,21.1,23s49-18.7,67.8,0"/>
	<path fill="none" d="M150.2,8.9h-32.1v96 M150.2,72.9c17.7,0,32.1-14.3,32.1-32s-14.4-32-32.1-32 M182.3,104.9
		c0-17.7-14.4-32-32.1-32h-32.1"/>
	<path fill="none" d="M287.4,104.9v-96 M208.2,8.9v96 M208.2,72.9h79.2"/>
</g>
<path class="st0" d="M88.9,90.8c-18.7,18.7-49,18.7-67.8,0S2.4,41.7,21.1,23s49-18.7,67.8,0"/>
<path class="st0" d="M150.2,8.9h-32.1v96 M150.2,72.9c17.7,0,32.1-14.3,32.1-32s-14.4-32-32.1-32 M182.3,104.9
	c0-17.7-14.4-32-32.1-32h-32.1"/>
<path class="st0" d="M287.4,104.9v-96 M208.2,8.9v96 M208.2,72.9h79.2"/>
</svg>
